<?xml version="1.0" encoding="UTF-8"?>
<svg xmlns="http://www.w3.org/2000/svg"
     viewBox="300 300 400 400"
     role="img"
     aria-labelledby="title description"
     style="color: #111111">

    <style>
        .ink-fill {
            fill: currentColor;
        }

        .ink-stroke {
            fill: none;
            stroke: currentColor;
            stroke-linecap: round;
            stroke-linejoin: round;
        }

        .paper-fill {
            fill: #ffffff;
        }
    </style>

    <g class="ink-stroke" stroke-width="23">
        <!-- Horns -->
        <path d="M405 444.891q-50-40-30-95 30 45 75 35"/>
        <path d="M595 444.891q50-40 30-95-30 45-75 35"/>

        <!-- Ears -->
        <path d="M416 405.144q-74-35-101 20 50 33 110 20" class="paper-fill"/>
        <path d="M584 405.144q74-35 101 20-50 33-110 20" class="paper-fill"/>

        <!-- Head -->
        <path d="M410 400.108q90-45 180 0 35 55 17 145-17 90-107 105-90-15-107-105-18-90 17-145Z"/>

        <!-- Muzzle -->
        <path d="M405 541.765q95-40 190 0 25 60-20 90-75 35-150 0-45-30-20-90Z"
              class="paper-fill"/>
    </g>

    <g class="ink-fill">
        <ellipse cx="445" cy="483.869" rx="13" ry="20"/>
        <ellipse cx="555" cy="483.869" rx="13" ry="20"/>
        <ellipse cx="460" cy="568.869" rx="12" ry="16"/>
        <ellipse cx="540" cy="568.869" rx="12" ry="16"/>
    </g>
</svg>